<?xml version="1.0" encoding="UTF-8"?>
<svg id="Camada_2" data-name="Camada 2" xmlns="http://www.w3.org/2000/svg" viewBox="0 0 1798 602.55">
  <defs>
    <style>
      .cls-1 {
        fill: #1a1a1a;
      }
    </style>
  </defs>
  <g id="Camada_1-2" data-name="Camada 1">
    <g>
      <path class="cls-1" d="M1412.79,19.29C1399.05,.22,1375.68,0,1374.21,0c-16.36,.15-31.19,8.84-39.16,21.26-7.96,12.42-7.52,25.93-7.31,29.29,.15,4.16,.88,7.31,1.31,9.28,3.43,15.49,12.13,26.01,16.58,31.19,4.6,5.41,4.38,3.87,21.92,21.33,2.85,2.78,5.55,5.55,8.33,8.26,2.34-2.26,4.68-4.6,7.01-6.94,18.26-19.36,22.57-25.28,22.57-25.28,5.04-6.94,9.13-12.57,11.98-20.6,.15-.51,.44-1.24,.73-2.26,8.55-27.03-5.41-46.24-5.41-46.24Zm-38.5,62.97c-14.39,0-26.01-11.69-26.01-26.08s11.62-26.01,26.01-26.01,26.08,11.69,26.08,26.01-11.69,26.08-26.08,26.08Z"/>
      <g>
        <path class="cls-1" d="M108.05,389.3v204.62c0,4.75,3.87,8.62,8.62,8.62h73.49c4.82,0,8.69-3.87,8.69-8.62v-230.85c-29.37,5.41-59.9,13.73-90.81,26.23Zm189.5-246.99H8.69c-4.82,0-8.69,3.95-8.69,8.69v63.63c0,4.82,3.87,8.69,8.69,8.69H99.35c4.82,0,8.69,3.87,8.69,8.69v23.82c31.12-12.71,61.73-21.26,91.32-26.81,1.24-3.36,4.38-5.7,8.18-5.7h90c2.7,0,5.11-1.24,6.65-3.14,1.32-1.46,2.05-3.43,2.05-5.55v-63.63c0-4.75-3.87-8.69-8.69-8.69Z"/>
        <path class="cls-1" d="M774.08,589.47l-80.58-135.88-3.43-5.84c-2.48-4.24-.88-9.57,3.43-11.98,33.6-18.7,57.42-46.1,69.33-81.97,5.63-17.02,8.55-36.02,8.55-56.84,0-96.94-67.5-154.65-188.41-154.65h-170.51c-4.75,0-8.69,3.95-8.69,8.69v76.56c4.97,.66,9.72,1.24,14.32,1.83,26.81,3.43,52.23,8.18,76.56,13.88v-11.83c0-4.82,3.87-8.69,8.62-8.69h71.74c76.71,0,102.49,30.03,102.49,77.29,0,3.51-.15,6.94-.44,10.3-4.16,50.48-40.33,77.44-119.22,77.44-11.03,0-21.11-.37-30.46-.95-9.06-.66-17.39-1.53-25.28-2.7-3.36-.51-5.99-2.85-6.94-5.84-25.06-6.06-51.28-10.96-79.04-14.54-3.94-.51-8.04-1.02-12.35-1.61v231.8c0,4.75,3.95,8.62,8.69,8.62h73.49c4.75,0,8.69-3.87,8.69-8.62v-123.97c0-5.33,4.68-9.42,9.86-8.55,15.71,2.48,33.97,3.73,55.16,3.73,12.13,0,24.33-.44,35.72-1.39,3.29-.29,6.43,1.39,8.11,4.31l75.17,130.18c1.53,2.7,4.38,4.31,7.52,4.31h80.43c6.72,0,10.88-7.31,7.45-13.08Z"/>
        <path class="cls-1" d="M1247.91,590.2l-31.85-68.09-177.81-380.32c-1.46-3.07-4.53-4.97-7.89-4.97s-6.43,1.9-7.89,4.97l-132.96,285.2-49.02,105.05,75.68,48.43,23.01-55.37c1.31-3.29,4.46-5.41,7.96-5.41h166.42c1.97,0,3.87,.66,5.33,1.9,1.17,.88,2.05,2.12,2.63,3.51l29.95,72.1c1.31,3.21,4.53,5.33,8.04,5.33h80.58c6.36,0,10.52-6.57,7.82-12.35Zm-272.13-155.46l46.54-112.21c2.92-7.16,13.08-7.09,16,.07l46.02,112.14c2.34,5.7-1.83,11.98-8.04,11.98h-92.49c-6.21,0-10.37-6.28-8.04-11.98Z"/>
        <path class="cls-1" d="M1414.39,142.31h-72.25c-4.75,0-8.62,3.95-8.62,8.69v442.93c0,4.75,3.87,8.62,8.62,8.62h72.25c4.82,0,8.69-3.87,8.69-8.62V151c0-4.75-3.87-8.69-8.69-8.69Z"/>
        <path class="cls-1" d="M1643.93,142.31h-73.49c-4.82,0-8.69,3.95-8.69,8.69V418.96c33.82-18.34,64.07-37.77,90.88-56.98V151c0-4.75-3.94-8.69-8.69-8.69Zm145.45,379.3h-128.14c-4.75,0-8.62-3.94-8.62-8.69v-18.04c-26.74,19.36-56.98,38.86-90.88,57.35v41.71c0,4.75,3.87,8.62,8.69,8.62h218.94c4.75,0,8.62-3.87,8.62-8.62v-63.7c0-4.75-3.87-8.62-8.62-8.62Z"/>
      </g>
    </g>
  </g>
</svg>